# xmcd CD database file
#
# Track frame offsets:
#	150
#	26497
#	55712
#	94655
#	130587
#	162042
#	190735
#	241010
#	268125
#	290200
#
# Disc length: 4400 seconds
#
# Revision: 0
# Processed by: cddbd v1.5.2PL0 Copyright (c) Steve Scherf et al.
# Submitted via: CDex 1.70beta2
#
DISCID=80112e0a
DTITLE=Anders Lindskog - Cry Me a River
DYEAR=1995
DGENRE=Jazz
TTITLE0=Blues Changes
TTITLE1=Old Folks
TTITLE2=Time After Time
TTITLE3=Falling in Love with Love
TTITLE4=Cry Me a River
TTITLE5=Tickle Toe
TTITLE6=I'm afraid the Masquerade is Over
TTITLE7=Israel
TTITLE8=Angel Eyes
TTITLE9=The Man I Love
EXTD=YEAR: 1995
EXTT0=
EXTT1=
EXTT2=
EXTT3=
EXTT4=
EXTT5=
EXTT6=
EXTT7=
EXTT8=
EXTT9=
PLAYORDER=
